PathFileType	4	(X/Y/Z)	 2.2Hzhigh3min.trc
DataRate	CameraRate	NumFrames	NumMarkers	Units	OrigDataRate	OrigDataStartFrame	OrigNumFrames
200	200	11	35	m	200	501	1000
Frame#	Time	C7			LSH			RSH			MAN			RASI			LASI			HIPR			HIPL			RPSI			LPSI			COX			RTHI1			RTHI2			RTHI3			RTHI4			RSHA1			RSHA2			RSHA3			RSHA4			RHEEL			RMET5			RMET1			RTOE			LTHI1			LTHI2			LTHI3			LTHI4			LSHA1			LSHA2			LSHA3			LSHA4			LHEEL			LMET5			LMET1			LTOE			
		X1	Y1	Z1	X2	Y2	Z2	X3	Y3	Z3	X4	Y4	Z4	X5	Y5	Z5	X6	Y6	Z6	X7	Y7	Z7	X8	Y8	Z8	X9	Y9	Z9	X10	Y10	Z10	X11	Y11	Z11	X12	Y12	Z12	X13	Y13	Z13	X14	Y14	Z14	X15	Y15	Z15	X16	Y16	Z16	X17	Y17	Z17	X18	Y18	Z18	X19	Y19	Z19	X20	Y20	Z20	X21	Y21	Z21	X22	Y22	Z22	X23	Y23	Z23	X24	Y24	Z24	X25	Y25	Z25	X26	Y26	Z26	X27	Y27	Z27	X28	Y28	Z28	X29	Y29	Z29	X30	Y30	Z30	X31	Y31	Z31	X32	Y32	Z32	X33	Y33	Z33	X34	Y34	Z34	X35	Y35	Z35	
501	2.5050	-0.312880	1.474348	-0.524039	-0.251798	1.502154	-0.686911	-0.261752	1.473414	-0.363855	-0.180931	1.450201	-0.522227	-0.118318	1.042624	-0.419719	-0.113807	1.047159	-0.641727	-0.173471	1.101267	-0.394350	-0.170456	1.097054	-0.671048	-0.272802	1.080983	-0.478985	-0.274548	1.081175	-0.585654	-0.275900	1.087461	-0.528608	-0.220978	0.846513	-0.362939	-0.207790	0.788380	-0.359997	-0.144550	0.801233	-0.352265	-0.150462	0.862157	-0.354978	-0.249437	0.454376	-0.356037	-0.260103	0.412562	-0.359292	-0.193679	0.444395	-0.363945	-0.199810	0.404296	-0.363068	-0.316582	0.186885	-0.412992	-0.220547	0.062407	-0.365009	-0.191899	0.057706	-0.429453	-0.173317	0.044207	-0.421704	-0.215077	0.847183	-0.712678	-0.197384	0.788264	-0.712845	-0.134265	0.801345	-0.711815	-0.142852	0.861065	-0.711690	-0.268107	0.421344	-0.705539	-0.277860	0.381897	-0.703921	-0.215545	0.373524	-0.701351	-0.214178	0.417528	-0.703654	-0.331068	0.174656	-0.653402	-0.225319	0.068687	-0.710170	-0.191862	0.058673	-0.650775	-0.172713	0.043583	-0.653017	
502	2.5100	-0.312353	1.477156	-0.524023	-0.250916	1.505770	-0.686766	-0.261537	1.476939	-0.364402	-0.180837	1.453473	-0.522366	-0.118209	1.045634	-0.420037	-0.113226	1.049969	-0.641874	-0.173328	1.104431	-0.394561	-0.169609	1.100200	-0.671306	-0.272335	1.084684	-0.479374	-0.273882	1.084834	-0.586090	-0.275325	1.091183	-0.529027	-0.221050	0.849378	-0.363192	-0.207949	0.791212	-0.360401	-0.144724	0.803960	-0.352401	-0.150549	0.864904	-0.354974	-0.248846	0.456944	-0.356298	-0.259362	0.415089	-0.359580	-0.193060	0.447205	-0.364251	-0.199040	0.407072	-0.363421	-0.315242	0.188919	-0.413636	-0.217750	0.065792	-0.364706	-0.188459	0.061217	-0.428854	-0.169753	0.047751	-0.421047	-0.215622	0.849805	-0.712405	-0.197981	0.790866	-0.712747	-0.134835	0.803886	-0.712439	-0.143375	0.863614	-0.712235	-0.267498	0.424000	-0.705484	-0.277150	0.384526	-0.703825	-0.214794	0.376313	-0.701579	-0.213546	0.420333	-0.703890	-0.329274	0.176661	-0.652978	-0.222973	0.072292	-0.712086	-0.188450	0.061976	-0.653372	-0.169242	0.046697	-0.655966	
503	2.5150	-0.313304	1.480073	-0.524997	-0.249872	1.509031	-0.686637	-0.261302	1.480136	-0.364908	-0.180631	1.456381	-0.522551	-0.118177	1.048434	-0.420267	-0.112713	1.052538	-0.642024	-0.173380	1.107307	-0.394734	-0.168877	1.103025	-0.671574	-0.271983	1.088061	-0.479772	-0.273302	1.088162	-0.586526	-0.274844	1.094590	-0.529463	-0.221160	0.851994	-0.363414	-0.208095	0.793802	-0.360809	-0.144878	0.806515	-0.352615	-0.150688	0.867469	-0.355020	-0.248045	0.459478	-0.356543	-0.258474	0.417595	-0.359838	-0.192257	0.449866	-0.364682	-0.198152	0.409725	-0.363854	-0.314106	0.190758	-0.414428	-0.214935	0.069206	-0.364420	-0.185044	0.064737	-0.428306	-0.166178	0.051336	-0.420446	-0.216105	0.852019	-0.712119	-0.198463	0.793073	-0.712583	-0.135307	0.806096	-0.712925	-0.143858	0.865823	-0.712677	-0.266705	0.426527	-0.705489	-0.276297	0.387018	-0.703811	-0.213918	0.378924	-0.701739	-0.212743	0.422944	-0.704042	-0.327676	0.178479	-0.652619	-0.220656	0.075909	-0.713948	-0.185231	0.065233	-0.655828	-0.165935	0.049790	-0.658749	
504	2.5200	-0.313083	1.482609	-0.525490	-0.248741	1.511955	-0.686557	-0.261067	1.483002	-0.365365	-0.180343	1.458961	-0.522769	-0.118207	1.051036	-0.420416	-0.112282	1.054873	-0.642172	-0.173623	1.109890	-0.394873	-0.168262	1.105527	-0.671848	-0.271737	1.091099	-0.480187	-0.272808	1.091143	-0.586959	-0.274458	1.097664	-0.529910	-0.221311	0.854369	-0.363605	-0.208216	0.796175	-0.361204	-0.145005	0.808909	-0.352902	-0.150875	0.869870	-0.355115	-0.247067	0.461968	-0.356781	-0.257474	0.420076	-0.360072	-0.191298	0.452405	-0.365172	-0.197172	0.412253	-0.364359	-0.313097	0.192426	-0.415354	-0.212149	0.072591	-0.364197	-0.181719	0.068193	-0.427836	-0.162680	0.054868	-0.419909	-0.216510	0.853878	-0.711836	-0.198822	0.794937	-0.712386	-0.135673	0.808016	-0.713292	-0.144276	0.867731	-0.713020	-0.265777	0.428909	-0.705540	-0.275331	0.389372	-0.703874	-0.212945	0.381348	-0.701857	-0.211810	0.425367	-0.704141	-0.326258	0.180128	-0.652371	-0.218405	0.079446	-0.715696	-0.182219	0.068396	-0.658114	-0.162818	0.052818	-0.661360	
505	2.5250	-0.312624	1.484461	-0.526094	-0.247763	1.514561	-0.686632	-0.260841	1.485538	-0.365769	-0.179982	1.461281	-0.523005	-0.118284	1.053439	-0.420486	-0.111929	1.056971	-0.642312	-0.174025	1.112193	-0.394984	-0.167765	1.107708	-0.672117	-0.271591	1.093783	-0.480622	-0.272400	1.093764	-0.587392	-0.274172	1.100376	-0.530364	-0.221488	0.856511	-0.363775	-0.208296	0.798347	-0.361574	-0.145070	0.811136	-0.353202	-0.151093	0.872115	-0.355265	-0.245956	0.464381	-0.357050	-0.256390	0.422506	-0.360328	-0.190222	0.454813	-0.365714	-0.196129	0.414654	-0.364946	-0.312172	0.193948	-0.416376	-0.209453	0.075875	-0.364066	-0.178540	0.071524	-0.427473	-0.159329	0.058271	-0.419464	-0.216821	0.855435	-0.711561	-0.199050	0.796511	-0.712187	-0.135917	0.809691	-0.713555	-0.144612	0.869384	-0.713265	-0.264760	0.431121	-0.705622	-0.274298	0.391566	-0.703992	-0.211906	0.383589	-0.701945	-0.210788	0.427603	-0.704193	-0.324994	0.181610	-0.652231	-0.216243	0.082830	-0.717286	-0.179423	0.071433	-0.660200	-0.159904	0.055740	-0.663763	
506	2.5300	-0.312083	1.485906	-0.526580	-0.246963	1.516860	-0.686862	-0.260639	1.487740	-0.366121	-0.179580	1.463356	-0.523255	-0.118402	1.055641	-0.420492	-0.111649	1.058840	-0.642442	-0.174543	1.114226	-0.395079	-0.167371	1.109570	-0.672378	-0.271537	1.096114	-0.481070	-0.272079	1.096016	-0.587821	-0.273978	1.102717	-0.530827	-0.221675	0.858434	-0.363953	-0.208324	0.800310	-0.361904	-0.145066	0.813194	-0.353509	-0.151318	0.874205	-0.355467	-0.244751	0.466710	-0.357355	-0.255248	0.424834	-0.360619	-0.189063	0.457069	-0.366311	-0.195037	0.416909	-0.365584	-0.311310	0.195331	-0.417451	-0.206889	0.078995	-0.364056	-0.175560	0.074685	-0.427256	-0.156171	0.061509	-0.419160	-0.217023	0.856747	-0.711311	-0.199144	0.797850	-0.712012	-0.136033	0.811161	-0.713734	-0.144849	0.870824	-0.713423	-0.263686	0.433161	-0.705727	-0.273226	0.393583	-0.704142	-0.210833	0.385627	-0.702023	-0.209719	0.429629	-0.704228	-0.323867	0.182928	-0.652198	-0.214186	0.086008	-0.718706	-0.176853	0.074304	-0.662050	-0.157210	0.058515	-0.665907	
507	2.5350	-0.311640	1.487593	-0.527024	-0.246391	1.518864	-0.687262	-0.260467	1.489609	-0.366418	-0.179165	1.465209	-0.523510	-0.118547	1.057640	-0.420445	-0.111424	1.060478	-0.642565	-0.175133	1.116002	-0.395166	-0.167058	1.111121	-0.672624	-0.271565	1.098081	-0.481529	-0.271843	1.097899	-0.588244	-0.273869	1.104679	-0.531294	-0.221845	0.860146	-0.364128	-0.208290	0.802065	-0.362201	-0.144991	0.815087	-0.353818	-0.151530	0.876142	-0.355718	-0.243477	0.468894	-0.357714	-0.254082	0.427035	-0.360955	-0.187850	0.459140	-0.366988	-0.193916	0.418983	-0.366280	-0.310498	0.196587	-0.418552	-0.204481	0.081908	-0.364197	-0.172808	0.077640	-0.427223	-0.153247	0.064538	-0.419037	-0.217104	0.857856	-0.711106	-0.199097	0.798998	-0.711873	-0.136014	0.812459	-0.713840	-0.144970	0.872097	-0.713500	-0.262586	0.435015	-0.705838	-0.272141	0.395415	-0.704303	-0.209753	0.387447	-0.702099	-0.208629	0.431443	-0.704257	-0.322863	0.184066	-0.652245	-0.212243	0.088941	-0.719942	-0.174520	0.076971	-0.663638	-0.154746	0.061119	-0.667747	
508	2.5400	-0.311369	1.488728	-0.527396	-0.246044	1.520578	-0.687827	-0.260320	1.491151	-0.366661	-0.178738	1.466849	-0.523773	-0.118708	1.059431	-0.420357	-0.111245	1.061886	-0.642682	-0.175771	1.117520	-0.395249	-0.166809	1.112378	-0.672847	-0.271661	1.099694	-0.481996	-0.271688	1.099421	-0.588656	-0.273839	1.106272	-0.531756	-0.221970	0.861645	-0.364322	-0.208177	0.803620	-0.362496	-0.144820	0.816789	-0.354102	-0.151699	0.877906	-0.356009	-0.242161	0.470894	-0.358137	-0.252905	0.429065	-0.361351	-0.186610	0.461005	-0.367700	-0.192782	0.420853	-0.367029	-0.309729	0.197712	-0.419671	-0.202246	0.084582	-0.364498	-0.170311	0.080357	-0.427391	-0.150581	0.067329	-0.419135	-0.217056	0.858796	-0.710958	-0.198909	0.799986	-0.711780	-0.135859	0.813609	-0.713878	-0.144969	0.873222	-0.713505	-0.261484	0.436653	-0.705950	-0.271058	0.397053	-0.704463	-0.208676	0.389043	-0.702182	-0.207528	0.433045	-0.704300	-0.321969	0.185025	-0.652361	-0.210412	0.091586	-0.720982	-0.172415	0.079406	-0.664937	-0.152509	0.063524	-0.669247	
509	2.5450	-0.310778	1.490028	-0.528031	-0.245844	1.521993	-0.688511	-0.260227	1.492386	-0.366831	-0.178268	1.468264	-0.524052	-0.118874	1.061002	-0.420238	-0.111087	1.063065	-0.642795	-0.176408	1.118798	-0.395336	-0.166605	1.113362	-0.673039	-0.271816	1.100962	-0.482456	-0.271607	1.100590	-0.589043	-0.273878	1.107510	-0.532204	-0.222024	0.862939	-0.364558	-0.207971	0.804976	-0.362803	-0.144548	0.818305	-0.354364	-0.151795	0.879486	-0.356336	-0.240829	0.472674	-0.358624	-0.251720	0.430875	-0.361816	-0.185359	0.462636	-0.368464	-0.191648	0.422498	-0.367815	-0.309010	0.198712	-0.420786	-0.200192	0.086979	-0.364974	-0.168075	0.082818	-0.427780	-0.148180	0.069861	-0.419475	-0.216882	0.859586	-0.710869	-0.198576	0.800832	-0.711730	-0.135561	0.814637	-0.713849	-0.144839	0.874223	-0.713452	-0.260379	0.438070	-0.706055	-0.269981	0.398491	-0.704608	-0.207611	0.390412	-0.702276	-0.206421	0.434423	-0.704356	-0.321168	0.185805	-0.652537	-0.208688	0.093924	-0.721825	-0.170526	0.081597	-0.665943	-0.150488	0.065707	-0.670395	
510	2.5500	-0.000000	0.000000	-0.000000	-0.245598	1.523100	-0.689239	-0.260184	1.493321	-0.366933	-0.177721	1.469428	-0.524361	-0.119043	1.062347	-0.420115	-0.110942	1.064026	-0.642905	-0.177009	1.119843	-0.395436	-0.166425	1.114089	-0.673202	-0.272018	1.101901	-0.482892	-0.271591	1.101430	-0.589394	-0.273970	1.108424	-0.532631	-0.221980	0.864036	-0.364828	-0.207666	0.806122	-0.363130	-0.144201	0.819648	-0.354677	-0.151799	0.880871	-0.356688	-0.239501	0.474213	-0.359166	-0.250546	0.432440	-0.362334	-0.184115	0.464020	-0.369269	-0.190515	0.423897	-0.368618	-0.308346	0.199570	-0.421878	-0.198314	0.089081	-0.365636	-0.166099	0.085006	-0.428401	-0.146045	0.072130	-0.420072	-0.216573	0.860240	-0.710856	-0.198097	0.801550	-0.711716	-0.135122	0.815542	-0.713749	-0.144575	0.875104	-0.713348	-0.259271	0.439263	-0.706145	-0.268904	0.399716	-0.704732	-0.206551	0.391547	-0.702383	-0.205307	0.435567	-0.704434	-0.320451	0.186412	-0.652787	-0.207062	0.095932	-0.722472	-0.168829	0.083525	-0.666660	-0.148665	0.067647	-0.671200	
511	2.5550	-0.000000	0.000000	-0.000000	-0.245235	1.523901	-0.689991	-0.260176	1.493983	-0.366959	-0.177219	1.470348	-0.524670	-0.119205	1.063456	-0.419999	-0.110808	1.064777	-0.643011	-0.177557	1.120667	-0.395550	-0.166257	1.114586	-0.673335	-0.272256	1.102516	-0.483299	-0.271630	1.101948	-0.589702	-0.274107	1.109025	-0.533026	-0.221814	0.864923	-0.365115	-0.207254	0.807061	-0.363482	-0.143765	0.820790	-0.355031	-0.151689	0.882042	-0.357059	-0.238192	0.475486	-0.359762	-0.249394	0.433751	-0.362900	-0.182888	0.465140	-0.370089	-0.189391	0.425033	-0.369437	-0.307739	0.200284	-0.422942	-0.196606	0.090883	-0.366485	-0.164372	0.086913	-0.429249	-0.144172	0.074118	-0.420923	-0.216135	0.860756	-0.710911	-0.197469	0.802134	-0.711726	-0.134537	0.816333	-0.713574	-0.144179	0.875866	-0.713193	-0.258150	0.440233	-0.706221	-0.267822	0.400717	-0.704833	-0.205487	0.392443	-0.702495	-0.204179	0.436473	-0.704520	-0.319806	0.186855	-0.653103	-0.205525	0.097590	-0.722919	-0.167303	0.085180	-0.667107	-0.147018	0.069335	-0.671676	
